<svg xmlns="http://www.w3.org/2000/svg" xmlns:xlink="http://www.w3.org/1999/xlink" width="192" height="72.453" viewBox="0 0 192 72.453">
  <defs>
    <clipPath id="clip-path">
      <rect id="Rectangle_147986" data-name="Rectangle 147986" width="191.483" height="66.13" fill="none"/>
    </clipPath>
  </defs>
  <g id="logo" transform="translate(11727 -8259)">
    <rect id="Rectangle_148253" data-name="Rectangle 148253" width="192" height="72" transform="translate(-11727 8259.453)" fill="none"/>
    <path id="Path_38245" data-name="Path 38245" d="M84.829,49.773,62.374,14.857,84.983,66.131,113.9,0Z" transform="translate(-11720.979 8259)" fill="#b01e28"/>
    <g id="Group_8654" data-name="Group 8654" transform="translate(-11727 8259)">
      <g id="Group_8653" data-name="Group 8653" clip-path="url(#clip-path)">
        <path id="Path_38246" data-name="Path 38246" d="M176.188,57.914c0,1.584-.029,2.716,1.47,3.594v.084h-5v-.084c1.5-.879,1.5-2.01,1.5-3.594V46.635c0-1.582,0-2.716-1.471-3.564v-.083h4.129v.028a1.67,1.67,0,0,0,.424.707l.393.564,10.347,13.061V46.635c0-1.582.028-2.716-1.467-3.564v-.083h4.975v.083c-1.471.849-1.471,1.982-1.471,3.564V62.5a7.812,7.812,0,0,1-4.127-3.224l-9.7-12.3ZM167.9,52.091c0,5.768-4.776,9.95-10.4,9.95-5.6,0-10.319-4.014-10.319-9.808,0-5.37,4.663-9.866,10.6-9.727A9.756,9.756,0,0,1,167.9,52.091m-17.5-.114c0,3.96,2.8,8.029,7.239,8.029,4.3,0,7.04-3.137,7.04-7.352,0-4.126-2.628-8.112-7.1-8.112-4.382,0-7.183,3.168-7.183,7.435m-12.423-5c0-1.3.2-3.364-1.241-3.9v-.083H142.1v.083c-1.412.54-1.241,2.634-1.241,3.9v10.66c0,1.272-.171,3.333,1.241,3.875v.084h-5.369v-.084c1.411-.512,1.241-2.6,1.241-3.875Zm-9.185-.623a6.434,6.434,0,0,0-4.436-1.778c-1.615,0-3.651.62-3.651,2.568,0,3.876,9.726,3.817,9.726,9.047,0,3.026-3.164,5.852-7.574,5.852a14.646,14.646,0,0,1-5.063-.844l-.818-3.537a9.755,9.755,0,0,0,6.188,2.347c1.611,0,4.046-.961,4.046-2.936,0-4.414-9.727-3.62-9.727-9.615,0-3.563,3.647-4.918,7.1-4.918a14.167,14.167,0,0,1,4.212.624Zm-23.3.623c0-1.3.2-3.364-1.243-3.9v-.083h5.372v.083c-1.411.54-1.244,2.634-1.244,3.9v10.66c0,1.272-.167,3.333,1.244,3.875v.084h-5.372v-.084c1.415-.512,1.243-2.6,1.243-3.875ZM76.363,52.091c0,5.768-4.778,9.95-10.4,9.95-5.6,0-10.321-4.014-10.321-9.808,0-5.37,4.668-9.866,10.6-9.727a9.756,9.756,0,0,1,10.12,9.585m-17.5-.114c0,3.96,2.8,8.029,7.241,8.029,4.3,0,7.037-3.137,7.037-7.352,0-4.126-2.629-8.112-7.1-8.112-4.385,0-7.183,3.168-7.183,7.435M44.081,57.634c0,1.272-.223,3.333,1.191,3.875v.084H39.926v-.084c1.442-.512,1.271-2.6,1.271-3.875V46.974c0-1.3.171-3.364-1.271-3.9v-.082h9.046a2.883,2.883,0,0,0,1.33-.143h.084v3.279H50.3a4.03,4.03,0,0,0-3.334-1.1,15.909,15.909,0,0,0-2.888.2v5.254h3.392a2.836,2.836,0,0,0,1.217-.169h.084v3H48.69c-.451-.849-1.637-.794-2.515-.794H44.081Zm-26.25.28c0,1.584-.028,2.716,1.47,3.594v.084h-5v-.084c1.5-.879,1.5-2.01,1.5-3.594V46.635c0-1.582,0-2.716-1.471-3.564v-.083h4.13v.028a1.725,1.725,0,0,0,.424.707l.4.564L29.62,57.347V46.635c0-1.582.029-2.716-1.47-3.564v-.083h4.976v.083c-1.47.849-1.47,1.982-1.47,3.564V62.5a7.82,7.82,0,0,1-4.127-3.224l-9.7-12.3ZM1.244,46.974c0-1.3.2-3.364-1.244-3.9v-.083H5.372v.083c-1.414.54-1.245,2.634-1.245,3.9v10.66c0,1.272-.169,3.333,1.245,3.875v.084H0v-.084c1.414-.512,1.244-2.6,1.244-3.875Z" transform="translate(0 3.279)" fill="#2b2a29"/>
      </g>
    </g>
  </g>
</svg>
